<svg width="200" height="80" viewBox="0 0 200 80" xmlns="http://www.w3.org/2000/svg">
    <defs>
        <linearGradient id="logoGradient" x1="0%" y1="0%" x2="100%" y2="100%">
            <stop offset="0%" style="stop-color:#4CAF87;stop-opacity:1" />
            <stop offset="100%" style="stop-color:#67BF92;stop-opacity:1" />
        </linearGradient>
        <linearGradient id="logoGradient2" x1="0%" y1="0%" x2="100%" y2="0%">
            <stop offset="0%" style="stop-color:#4CAF87;stop-opacity:1" />
            <stop offset="100%" style="stop-color:#67BF92;stop-opacity:1" />
        </linearGradient>
    </defs>
    
    <!-- Mosque Icon -->
    <path d="M30,40 L30,25 C30,20 35,15 40,15 L50,15 C55,15 60,20 60,25 L60,40 L50,40 L50,32 C50,30 48,28 45,28 C42,28 40,30 40,32 L40,40 L30,40 Z" 
          fill="url(#logoGradient)"/>
    <path d="M45,15 L45,10 C45,8 47,6 50,6 C53,6 55,8 55,10 L55,15 Z" fill="url(#logoGradient)"/>
    <circle cx="45" cy="8" r="1" fill="#FFFFFF" opacity="0.8"/>
    
    <!-- Dome -->
    <path d="M40,15 Q45,5 50,15" fill="none" stroke="url(#logoGradient)" stroke-width="2"/>
    <circle cx="45" cy="13" r="1.5" fill="#FFFFFF" opacity="0.9"/>
    
    <!-- Text -->
    <text x="75" y="30" font-family="Arial, sans-serif" font-size="18" font-weight="bold" fill="url(#logoGradient2)">
        Masjid Outreach
    </text>
    <text x="75" y="50" font-family="Arial, sans-serif" font-size="12" fill="#666666">
        Platform
    </text>
</svg>